<svg xmlns="http://www.w3.org/2000/svg" version="1.1" xmlns:xlink="http://www.w3.org/1999/xlink" width="512" height="512" x="0" y="0" viewBox="0 0 512 512" style="enable-background:new 0 0 512 512" xml:space="preserve" class=""><g><path d="M476.422 438.593a65.319 65.319 0 0 0-28.584-36.307c-29.001 29.933-44.659 71.119-44.589 109.714h96.312l-23.139-73.407zM332.62 365.101c-15.925 31.582-47.865 45.982-76.65 45.982h-.241c-28.712-.081-60.543-14.511-76.412-45.962l-84.765 25.837c28.233 33.605 44.273 77.313 44.2 121.043H373.25c-.08-43.713 15.961-87.431 44.2-121.043zM35.578 438.593 12.439 512h96.312c.07-38.595-15.587-79.781-44.589-109.714a65.323 65.323 0 0 0-28.584 36.307zM378.495 80.82a43.73 43.73 0 0 0 2.27-13.916c0-24.195-19.614-43.809-43.809-43.809a44.1 44.1 0 0 0-6.481.481C321.203 9.385 305.188 0 286.972 0A51.714 51.714 0 0 0 256 10.243 51.714 51.714 0 0 0 225.028 0c-18.216 0-34.232 9.385-43.504 23.575a44.1 44.1 0 0 0-6.481-.481c-24.195 0-43.809 19.614-43.809 43.809 0 4.867.806 9.543 2.27 13.916-13.294 6.614-22.433 20.328-22.433 36.184a40.197 40.197 0 0 0 7.718 23.742c6.81-6.923 15.654-11.838 25.554-13.764l9.935-18.139c10.859-19.822 33.683-29.274 55.507-22.981 30.189 8.705 62.142 8.702 92.403-.008 21.839-6.29 44.672 3.162 55.524 22.977l9.943 18.151c9.899 1.926 18.743 6.841 25.553 13.763a40.19 40.19 0 0 0 7.719-23.74c.001-15.856-9.138-29.571-22.432-36.184z" fill="#318ce7" opacity="1" data-original="#000000" class=""></path><path d="M255.973 344.748c-18.198 0-35.441-4.168-50.825-11.599l-2.149 11.048c9.231 26.951 33.496 36.832 52.814 36.886h.16c19.395 0 43.756-9.871 53.003-37.021l-2.127-10.938c-15.398 7.446-32.658 11.624-50.876 11.624zM358.276 156.081h-8.887l-17.987-32.838c-4.062-7.415-12.664-10.935-20.915-8.56-35.695 10.276-73.392 10.276-109.013.005-8.234-2.375-16.821 1.15-20.885 8.568l-17.979 32.825h-8.887c-10.49 0-19.025 8.535-19.025 19.025v.11c0 10.491 8.535 19.025 19.025 19.025h15v33.257c0 48.109 39.14 87.249 87.249 87.249s87.249-39.14 87.249-87.249v-33.257h15c10.545 0 19.08-8.535 19.08-19.025v-.11c.001-10.49-8.534-19.025-19.025-19.025z" fill="#318ce7" opacity="1" data-original="#000000" class=""></path></g></svg>