<svg id="Capa_1" enable-background="new 0 0 512 512" height="512" viewBox="0 0 512 512" width="512" xmlns="http://www.w3.org/2000/svg"><g><path d="m281.145 357.672-25.145-.072-56.32-.16-122.37 37.3 45.3 117.26h133.39z" fill="#6bff88"/><path d="m434.7 394.74-45.31 117.26h-133.39v-154.4l56.25.16.07-.32 122.37 37.3z" fill="#07cf97"/><path d="m33.672 437.965-23.337 74.035h112.274c.079-43.059-16.531-85.589-45.302-117.257-20.781 6.334-37.104 22.503-43.635 43.222z" fill="#07cf97"/><path d="m281.145 300.009-25.145.011-45.15.01-11.17 57.41c6.24 30.66 31.28 46.01 56.32 46.01h.01c-.01 0 25.135-103.441 25.135-103.441z" fill="#7f4245"/><path d="m312.32 357.44-.07.32c-6.38 30.48-31.31 45.69-56.24 45.69h-.01v-103.43l45.15-.02z" fill="#663646"/><path d="m478.326 437.959c-6.531-20.718-22.851-36.881-43.63-43.216-28.77 31.668-45.38 74.198-45.302 117.257h112.271s-13.418-42.569-23.339-74.041z" fill="#16989d"/><path d="m256 10.584c-8.936-6.644-20.017-10.584-32.017-10.584-18.834 0-35.387 9.697-44.978 24.369-33.147-5.144-60.442 27.77-49.636 59.185-13.743 6.834-23.197 21.01-23.197 37.404 0 15.813 8.799 29.577 21.76 36.665l128.068.032 20.711-78.817z" fill="#493175"/><path d="m405.828 120.959c0 15.855-8.841 29.651-21.866 36.718l-127.962-.022v-147.071c8.936-6.644 20.017-10.584 32.017-10.584 18.834 0 35.387 9.697 44.978 24.369 33.422-4.838 60.115 26.936 49.636 59.185 13.743 6.835 23.197 21.011 23.197 37.405z" fill="#321d5a"/><path d="m276.711 210.704-20.711-102.231c-16.838 0-33.707-2.324-49.974-7.014-14.757-4.257-30.506 2.176-37.89 15.655l-13.595 24.823c-18.644 0-33.76 15.116-33.76 33.76-.179 18.19 15.158 33.834 33.76 33.865v18.105c0 56.027 45.411 101.438 101.427 101.438z" fill="#a35c51"/><path d="m391.219 175.697c.032 18.623-15.602 34.013-33.813 33.865v18.105c.044 55.469-45.155 101.448-101.406 101.439v-220.633c16.88 0 33.728-2.345 49.943-7.014 14.767-4.257 30.527 2.155 37.911 15.633l13.605 24.845c18.644 0 33.76 15.116 33.76 33.76z" fill="#7f4245"/></g></svg>