<svg xmlns="http://www.w3.org/2000/svg" version="1.1" xmlns:xlink="http://www.w3.org/1999/xlink" width="512" height="512" x="0" y="0" viewBox="0 0 512 512" style="enable-background:new 0 0 512 512" xml:space="preserve"><g><path d="m213.864 299.133-10.428 53.612-114.218 34.814a61.496 61.496 0 0 0-40.725 40.336L26.71 497h458.58l-21.781-69.1a61.505 61.505 0 0 0-40.726-40.341l-114.218-34.814-10.423-53.588" style="stroke-width:30;stroke-miterlimit:10;" fill="none" stroke="#318ce7" stroke-width="30" stroke-miterlimit="10" data-original="#000000" opacity="1"></path><path d="M203.436 352.745c11.624 57.089 93.123 57.317 105.066.294l.062-.294M89.218 387.559C116.07 417.116 131.574 456.811 131.5 497M422.785 387.559c-26.853 29.557-42.356 69.252-42.282 109.441M376.508 171.584c0-16.614-13.468-30.083-30.083-30.083l-12.129-22.142c-6.583-12.017-20.624-17.731-33.791-13.941-28.863 8.308-60.012 8.375-89.039.006-13.158-3.794-27.19 1.936-33.769 13.946l-12.123 22.131c-16.614 0-30.083 13.468-30.083 30.083v.097c0 16.614 13.468 30.083 30.083 30.083v16.142c0 49.927 40.474 90.401 90.401 90.401s90.401-40.474 90.401-90.401v-16.142h.049c16.614 0 30.083-13.468 30.083-30.083v-.097z" style="stroke-width:30;stroke-miterlimit:10;" fill="none" stroke="#318ce7" stroke-width="30" stroke-miterlimit="10" data-original="#000000" opacity="1"></path><path d="M370.047 155.526c11.603-6.303 19.479-18.596 19.479-32.728 0-14.608-8.42-27.244-20.668-33.337a40.284 40.284 0 0 0 2.092-12.821c0-22.291-18.071-40.362-40.362-40.362a40.68 40.68 0 0 0-5.971.443C316.073 23.646 301.318 15 284.535 15A47.639 47.639 0 0 0 256 24.438 47.639 47.639 0 0 0 227.465 15c-16.783 0-31.538 8.646-40.081 21.72a40.68 40.68 0 0 0-5.971-.443c-22.291 0-40.362 18.071-40.362 40.362 0 4.484.742 8.792 2.092 12.821-12.248 6.093-20.668 18.729-20.668 33.337 0 14.095 7.834 26.36 19.386 32.677" style="stroke-width:30;stroke-miterlimit:10;" fill="none" stroke="#318ce7" stroke-width="30" stroke-miterlimit="10" data-original="#000000" opacity="1"></path></g></svg>