<svg id="Capa_1" enable-background="new 0 0 512 512" height="512" viewBox="0 0 512 512" width="512" xmlns="http://www.w3.org/2000/svg"><g><path d="m428.231 428.885v75.615h-344.462v-75.615c0-64.559 52.335-116.894 116.894-116.894h110.674c64.559 0 116.894 52.335 116.894 116.894z" fill="#80635e"/><g><path d="m428.23 428.88v75.62h-33.34v-75.62c0-15.169-2.891-29.662-8.15-42.959-5.162-13.053-21.55-17.486-32.696-8.954-7.467 5.716-15.029 12.55-21.985 20.633l16.77 31.1c2.1 3.91 1.38 8.74-1.78 11.86l-42.55 42.03h-96.9l-42.55-42.03c-3.16-3.12-3.88-7.95-1.78-11.86l16.77-31.1c-17.35-20.17-38.9-31.83-52.5-39.23-5.39-2.93-9.29-6.18-12.02-9.57 21.31-22.66 51.57-36.81 85.14-36.81h110.68c64.558 0 116.891 52.333 116.891 116.89z" fill="#6c524e"/></g><path d="m202.379 290.395 5.221 165.143v48.962h96.899l.001-48.962 5.124-165.143z" fill="#fcb44d"/><g><g><g><g><g><g><g><g><g><g><path d="m370.815 164.4v-42.087c0-30.651-11.941-59.48-33.629-81.185-21.686-21.685-50.517-33.628-81.185-33.628-63.315 0-114.825 51.505-114.825 114.813v42.087z" fill="#433f43"/><path d="m370.81 122.31v42.09h-29.41v-42.09c0-30.65-11.94-59.48-33.63-81.18-18.17-18.18-41.37-29.51-66.47-32.7 4.81-.61 9.72-.93 14.7-.93 30.67 0 59.5 11.94 81.19 33.63 21.68 21.7 33.62 50.53 33.62 81.18z" fill="#353435"/><g><g><g><g fill="#ba5d4f"><circle cx="352.381" cy="178.811" r="30.444"/><circle cx="159.618" cy="178.811" r="30.444"/></g></g></g></g><path d="m220.892 75.326c-24.765 0-46.323 17.389-51.055 41.697-1.061 5.452-1.618 11.086-1.618 16.849v64.499c0 48.699 39.657 88.122 88.438 87.771 48.406-.363 87.115-40.465 87.115-88.872v-63.398c0-5.764-.557-11.398-1.619-16.851-4.735-24.307-26.291-41.695-51.055-41.695z" fill="#c86f5c"/><path d="m309.624 314.324s-11.057 20.041-53.623 20.041-53.623-20.041-53.623-20.041v-27.058c0-5.699 4.62-10.319 10.319-10.319h86.607c5.699 0 10.319 4.62 10.319 10.319v27.058z" fill="#fb8627"/></g></g></g></g></g></g></g></g></g></g><path d="m386.334 313.755c-33.184-24.665-76.71-23.36-76.71-23.36l-5.125 165.143 42.551-42.028c3.159-3.121 3.882-7.951 1.775-11.86l-16.768-31.107c17.357-20.17 38.513-32.582 52.504-39.221 7.015-3.328 8.004-12.936 1.773-17.567z" fill="#96756f"/><path d="m202.379 290.395s-43.431-1.306-76.614 23.36c-6.231 4.632-5.241 14.239 1.773 17.567 13.992 6.639 35.147 19.051 52.504 39.221l-16.769 31.107c-2.107 3.909-1.384 8.739 1.775 11.86l42.551 42.027z" fill="#96756f"/><g><path d="m368.013 423.25c-4.143 0-7.5 3.358-7.5 7.5v73.75c0 4.142 3.357 7.5 7.5 7.5s7.5-3.358 7.5-7.5v-73.75c0-4.143-3.358-7.5-7.5-7.5z"/><path d="m143.984 423.25c-4.143 0-7.5 3.358-7.5 7.5v73.75c0 4.142 3.357 7.5 7.5 7.5s7.5-3.358 7.5-7.5v-73.75c0-4.143-3.357-7.5-7.5-7.5z"/><path d="m392.612 334.743c2.962-2.881 4.849-6.735 5.27-11.017.616-6.264-2.028-12.242-7.073-15.992-27.014-20.079-59.889-23.986-74.214-24.702-.749-3.056-2.281-5.802-4.38-8.014 19.159-14.217 32.358-35.102 37.105-58.408 1.018.083 2.038.139 3.061.139 20.921 0 37.94-17.02 37.94-37.94 0-10.896-4.625-20.725-12.006-27.651v-28.845c0-26.009-8.025-50.804-23.207-71.705-2.435-3.352-7.125-4.093-10.477-1.66-3.351 2.434-4.094 7.125-1.66 10.476 13.31 18.322 20.344 40.069 20.344 62.89v20.17c-3.465-1.045-8.244-1.583-12.045-1.583v-7.021c0-6.163-.588-12.316-1.748-18.296-5.397-27.67-29.968-47.754-58.422-47.754h-70.2c-28.454 0-53.024 20.083-58.423 47.761-1.159 5.973-1.747 12.125-1.747 18.289v7.021c-3.804 0-8.587.538-12.055 1.585v-20.172c.001-59.173 48.146-107.314 107.326-107.314 23.181 0 45.195 7.227 63.666 20.899 3.328 2.463 8.024 1.764 10.49-1.566 2.464-3.33 1.763-8.026-1.566-10.491-21.071-15.597-46.173-23.842-72.59-23.842-67.45 0-122.325 54.87-122.325 122.313v28.848c-7.381 6.926-12.006 16.754-12.006 27.648 0 20.92 17.024 37.94 37.95 37.94.97 0 1.932-.05 2.891-.122 4.578 23.372 17.812 44.344 37.136 58.547-2.03 2.189-3.513 4.883-4.243 7.875-4.139.215-9.825.695-16.483 1.756-4.09.652-6.878 4.497-6.226 8.587s4.479 6.877 8.587 6.227c5.482-.874 10.248-1.312 13.836-1.528l4.393 138.916-29.191-28.832c-.784-.775-.968-1.994-.444-2.965l16.77-31.107c1.475-2.735 1.11-6.096-.917-8.451-18.055-20.98-39.86-33.933-54.975-41.105-1.263-.599-1.55-1.69-1.608-2.288-.057-.582.009-1.678 1.095-2.485 5.595-4.159 11.938-7.817 18.851-10.873 3.788-1.675 5.502-6.104 3.827-9.892-1.674-3.789-6.103-5.502-9.892-3.828-7.933 3.506-15.245 7.73-21.735 12.554-5.045 3.75-7.689 9.729-7.073 15.992.419 4.258 2.29 8.092 5.224 10.968-27.179 23.493-43.173 58.055-43.173 94.185v75.62c0 4.142 3.357 7.5 7.5 7.5s7.5-3.358 7.5-7.5v-75.62c0-34.046 15.283-65.295 42.027-86.177 11.587 6.381 25.38 15.758 37.645 28.919l-14.27 26.47c-3.663 6.795-2.386 15.33 3.106 20.755l40.322 39.826v45.827c0 4.142 3.357 7.5 7.5 7.5s7.5-3.358 7.5-7.5v-46.962l-3.909-125.739c9.229 5.226 23.517 10.066 44.81 10.066 21.297 0 35.571-4.793 44.833-10.052l-1.511 48.691c-.129 4.14 3.123 7.6 7.264 7.729 4.153.142 7.6-3.125 7.729-7.264l2.572-82.866c13.106.812 41.977 4.58 64.972 21.671 1.085.807 1.151 1.903 1.094 2.484-.059.598-.346 1.689-1.607 2.288-15.113 7.171-36.919 20.124-54.974 41.105-2.027 2.355-2.392 5.716-.917 8.451l16.768 31.106c.523.972.341 2.191-.443 2.966l-29.203 28.843.647-20.855c.129-4.14-3.123-7.601-7.264-7.729-4.166-.108-7.601 3.125-7.729 7.264l-1.233 41.842v46.961c0 4.142 3.357 7.5 7.5 7.5s7.5-3.358 7.5-7.5v-45.828l40.322-39.826c5.491-5.424 6.769-13.958 3.106-20.754l-14.269-26.47c12.243-13.139 26.01-22.506 37.585-28.886 26.718 20.885 41.986 52.123 41.986 86.144v75.62c0 4.142 3.357 7.5 7.5 7.5s7.5-3.358 7.5-7.5v-75.62c.001-36.099-15.973-70.643-43.117-94.137zm-41.342-137.473v-41.37c.369-.018.739-.03 1.11-.03 12.649 0 22.94 10.291 22.94 22.94s-10.291 22.94-22.94 22.94c-.409 0-.817-.015-1.225-.037.068-1.476.115-2.956.115-4.443zm-191.65 4.48c-12.654 0-22.95-10.291-22.95-22.94s10.296-22.94 22.95-22.94c.371 0 .741.012 1.11.03v42.47c0 1.118.022 2.233.061 3.346-.388.019-.778.034-1.171.034zm59.462 117.365c-4.167-2.3-6.864-4.665-8.494-6.416l-.709-25.433c0-1.555 1.265-2.819 2.819-2.819h6.384zm29.42 7.516c-5.485-.345-10.264-1.06-14.42-2.008v-40.177h14.42zm29.419-2.039c-4.155.958-8.94 1.68-14.419 2.032v-42.178h14.419zm23.508-11.912c-1.53 1.632-4.226 4.021-8.508 6.379v-34.612h6.384c1.555 0 2.819 1.265 2.819 2.819zm-7.906-43.234h-75.348c-25.309-14.21-42.445-42.084-42.445-71.076v-64.49c0-5.206.495-10.398 1.471-15.424 4.026-20.643 22.405-35.626 43.699-35.626h70.2c21.294 0 39.673 14.983 43.698 35.619.977 5.033 1.472 10.225 1.472 15.431v63.39c0 29.462-17.24 57.751-42.747 72.176z"/><path d="m236.63 234.906c4.954 4.204 11.505 6.519 18.446 6.519 6.942 0 13.493-2.315 18.447-6.519 3.158-2.68 3.546-7.413.866-10.571-2.68-3.159-7.412-3.547-10.571-.866-2.214 1.878-5.4 2.956-8.742 2.956-3.341 0-6.527-1.078-8.741-2.956-3.157-2.679-7.891-2.292-10.571.866s-2.292 7.891.866 10.571z"/><path d="m294.678 178.818h.045c4.121 0 7.475-3.329 7.499-7.457.024-4.142-3.314-7.519-7.456-7.543h-.084c-.016 0-.03 0-.045 0-4.121 0-7.433 3.33-7.457 7.457-.025 4.142 3.356 7.519 7.498 7.543z"/><path d="m217.364 178.818c4.143 0 7.5-3.358 7.5-7.5s-3.357-7.5-7.5-7.5h-.083c-4.143 0-7.459 3.358-7.459 7.5s3.4 7.5 7.542 7.5z"/><path d="m253.706 211.469c.464.086.924.127 1.379.127 3.543 0 6.694-2.522 7.365-6.132.756-4.072-1.932-7.987-6.004-8.744-1.649-.306-2.747-1.846-2.499-3.506l4.006-26.779c.613-4.096-2.211-7.914-6.308-8.527-4.086-.61-7.915 2.211-8.526 6.308l-4.006 26.779c-1.45 9.692 4.96 18.684 14.593 20.474z"/></g></g></svg>