<svg id="Layer_1" enable-background="new 0 0 100 100" height="512" viewBox="0 0 100 100" width="512" xmlns="http://www.w3.org/2000/svg"><path d="m76.67 55.25c0 5.31 3.78 9.61 8.44 9.61s8.44-4.3 8.44-9.61-3.78-9.61-8.44-9.61-8.44 4.3-8.44 9.61z" fill="#7c4723"/><path d="m6.5 55.25c0 5.31 3.78 9.61 8.44 9.61s8.44-4.3 8.44-9.61-3.78-9.61-8.44-9.61-8.44 4.3-8.44 9.61z" fill="#7c4723"/><path d="m12.74 46.05c0 24.29 14.7 42.58 37.26 42.58s37.26-18.29 37.26-42.58c0-18.74-14.69-41.08-37.26-41.08s-37.26 25.03-37.26 41.08z" fill="#935d38"/><path d="m88.08 48.22c0-1.16-.05-2.3-.12-3.43-.31-23.1-16.19-39.8-38-39.8-22 0-38 17-38 40.48v.42 2.48.14 4.33.14.27l.29 5.08c2.28 22 16.63 36.7 37.78 36.7s35.47-14.73 37.75-36.64l.31-10c0-.06 0-.11-.01-.17zm-7.19 11.54c0 7.15-5.43 12.42-12 14.29-1-4.55-5.18-7.22-11.41-7.22h-14.98c-6.25 0-10.42 2.69-11.42 7.25-6.65-1.81-12.06-6.92-12.06-14.19 0 0 0-14.16 0-14.73.56-8.27 3.09-12 11.23-12h39.34c9.5 0 11.21 5.22 11.25 16.69z" fill="#351806"/><path d="m40.83 71.62h18.33c.63 0 1.14.51 1.14 1.14 0 .04 0 .09-.01.13-.42 3.92-5.05 7.25-10.29 7.25-5.91 0-10-3.71-10.3-7.35-.03-.61.44-1.14 1.05-1.17z" fill="#fff"/><g fill="#351806"><path d="m38.92 53.61c-.23 2.56-2.49 4.44-5.05 4.21s-4.44-2.49-4.21-5.05c.22-2.39 2.22-4.23 4.62-4.23 2.68.13 4.75 2.39 4.64 5.07z"/><path d="m70.35 53.61c-.23 2.56-2.49 4.44-5.05 4.21s-4.44-2.49-4.21-5.05c.22-2.4 2.23-4.23 4.63-4.23 2.67.13 4.74 2.39 4.63 5.07z"/></g></svg>