<svg id="Layer_2" enable-background="new 0 0 512 512" height="512" viewBox="0 0 512 512" width="512" xmlns="http://www.w3.org/2000/svg"><g><g><path d="m411.5 281h-298c-13.81 0-25-11.19-25-25s11.19-25 25-25h298c13.81 0 25 11.19 25 25s-11.19 25-25 25z"/></g><g><path d="m227.99 399.25c-6.08 0-12.18-2.21-16.99-6.67l-127.5-118.25c-5.14-4.77-8.05-11.48-8-18.5.05-7.01 3.04-13.69 8.25-18.39l131-118.25c10.25-9.25 26.06-8.44 35.31 1.81s8.44 26.06-1.81 35.31l-110.72 99.94 107.47 99.67c10.12 9.39 10.72 25.21 1.33 35.33-4.93 5.31-11.62 8-18.34 8z"/></g></g></svg>