<svg xmlns="http://www.w3.org/2000/svg" version="1.1" xmlns:xlink="http://www.w3.org/1999/xlink" width="512" height="512" x="0" y="0" viewBox="0 0 135.467 135.467" style="enable-background:new 0 0 512 512" xml:space="preserve" class=""><g><path d="M55.32 29.313c-3.835-.005-7.58 1.25-10.904 3.482-1.61 1.082-2.943 2.425-4.536 4.074-1.592 1.65-3.203 3.472-4.46 5.145-1.07 1.425-1.405 1.705-2.166 2.668-.333-1.24-.942-2.267-1.484-2.81-.87-.869-2.328-1.718-3.966-1.78-1.638-.064-3.055.62-3.976 1.344-2.165 1.703-2.801 4.438-1.792 6.828-2.016-.045-4.098.586-5.655 1.87-.436.36-.782.79-1.12 1.223-.898-1.154-2.501-2.322-4.181-2.322-1.91 0-2.719.754-3.272 1.211A6.083 6.083 0 0 0 6.65 51.51c-.09.127-.112.323-.195.45-1.245.587-2.378 1.452-3.036 2.823-.704 1.467-.72 4.053.46 5.684.359.497 1.532 1.925 1.532 1.925.02.189-.066.247.434 1.056.439.71 1.473 1.763 2.924 2.217a37.193 37.193 0 0 0-1.101 4.092c-.392 1.849-.502 3.36-.511 7.228-.012 4.615.216 6.685 1.014 9.457.685 2.38 1.59 4.626 3.81 6.224.315.293.67.541 1.053.736 1.583.807 2.85.844 4.102.744 1.252-.1 2.5-.334 3.943-1.401.1-.074.157-.157.251-.231a5.413 5.413 0 0 0-.289 1.739c0 2.81 1.169 3.49 2.016 4.25.553.498 1.26.942 2.217 1.255.395.384.75.775 1.39 1.119.908.486 2.374.923 3.964.505 1.59-.417 2.757-1.621 3.3-2.58.13-.232.103-.392.194-.607.143-.113.305-.209.446-.33.364-.317.718-.666 1.097-1.213s.958-1.28.958-2.97c0-1.16-.638-2.345-1.394-3.3 2.397.776 4.604.442 6.848-.609.485-.227.745-.558 1.166-.809-.26 1.895.252 4.012 1.741 5.502 1.16 1.16 2.56 1.774 4.027 1.899.02.395-.01.75.088 1.24.197.99.644 1.885.941 2.421 1.365 2.464 3.707 4.008 6.272 5.026.41.283.864.498 1.343.637 3.24.945 5.917.728 8.884.165 6.581-1.248 12.503-4.774 16.57-9.83 3.04.546 6.402.621 9.609.14.299 1.203.885 2.22 1.524 2.86 1.627 1.626 3.197 1.718 4.542 1.62 1.345-.098 2.946-.41 4.318-2.37.873-1.246 1.086-2.906.798-4.456.161.23.355.439.552.646.101.255.362.62.573.91.157.264.34.512.545.74v.002c.419.465.797.77 1.288 1.072.492.302.87.78 2.68.78 2.481 0 2.762-.824 3.203-1.183s.71-.657.972-.975c.023-.028.045-.068.068-.096.534-.197 1.075-.295 1.617-.652.994-.656 2.631-1.815 2.631-4.607 0-.572-.3-1.33-.64-2.05 1.225-.23 2.389-.639 3.548-1.12 2.363-.98 4.64-2.393 6.575-4.29.94-.921 1.853-1.523 2.386-3.813.227-.975-.048-2.687-.956-4.056a22.715 22.715 0 0 0 1.91-3.12v-.002c1.007-1.995 1.71-3.937 1.849-6.065.139-2.127-.49-4.54-1.938-6.293-1.222-1.48-3.012-2.263-4.812-2.574.29-.544.507-1.267.507-2.438 0-3.144-1.22-3.442-1.968-4.1-.722-.635-1.304-1.41-3.584-1.465.392-.376.787-.775 1.049-1.31.998-2.039.49-3.423-.053-4.438-.013-.3.008-.609-.047-.92-.102-.575.053-1.105-1.14-2.542-1.527-1.84-3.494-2.052-4.87-1.904a6.138 6.138 0 0 0-2.023.574c-.25-.002-.458-.053-.736-.019-1.338.167-2.657.966-3.362 1.67-1.06 1.061-1.966 3.99-1.161 5.845.212.489.469.703.709 1.034-.007.362-.005.713.05 1.183.03.244.065.515.186.936.023.08.074.212.098.307-.501.041-1.014.07-1.444.182-.159-.88-.467-1.782-1.315-2.719-1.426-1.576-2.91-1.822-4.192-1.846-1.281-.023-2.66.196-4.086 1.486v.002c-1.575 1.426-1.823 2.911-1.846 4.193-.014.789.175 1.622.538 2.473.07.202.153.399.25.59-.644.084-1.259.205-1.87.431-.303-.635-.639-1.276-1.011-1.613-2.297-2.078-4.997-2.406-7.642-.21l-.002.001c-.637.529-.6.599-.709.767-1.204-2.46-3.986-4.626-7.065-4.356-2.678.235-4.12-.76-3.891-1.158.204-.357.284-.849.438-1.228.98-.772 1.874-1.814 2.037-3.608.15-1.658-.52-2.874-1.36-3.84-.1-.389-.243-.731-.452-1.232-.178-.425-.372-1.474-2-2.577-1.63-1.103-3.12-.883-3.59-.838-.519.05-2.193.462-3.307 1.514-2.297-4.001-6.882-6.58-11.766-6.586zm49.188 65.216c.081.083.136.184.223.262l.025.06a2.152 2.152 0 0 1-.248-.322zm1.326.989c.026.013.048.031.071.048a.596.596 0 0 0-.073-.043zm.091.06c.068.049.133.1.213.136-.125-.057-.156-.094-.213-.135zm6.768.572-.02.013c-.298.132-.29.104-.246.095.093-.02.175-.087.266-.108zm-88.007 3.134.009.008v-.001c.12.134.345.252.478.385-.335-.197-.486-.383-.487-.392z" fill="#0000ff" opacity="1" data-original="#000000"></path><path fill="#ffffff" d="M58.87 101.072c-2.292-.669-3.958-1.855-4.84-3.446-.484-.875-.53-1.11-.53-2.66 0-1.57.048-1.806.626-3.044 1.22-2.615 3.383-4.812 6.074-6.172 2.236-1.129 4.144-1.537 7.195-1.539 2.882-.001 4.761.374 9.015 1.8 1.769.592 3.267 1.077 3.328 1.077.13 0 1.806-3.519 2.16-4.535.214-.615 1.546-5.184 2.734-12.206.397-2.347.623-6.094 1.297-7.564.057-.124-.409.018-1.035.315-.626.297-1.597.635-2.157.751l-1.018.212-.307 1.264c-.837 3.459-2.583 7.79-4.141 10.27-3.06 4.873-6.244 6.522-8.692 4.5-.793-.656-1.164-1.305-1.561-2.733l-.29-1.043-.959 1.29c-1.358 1.826-3.201 3.59-4.44 4.251-2.392 1.275-4.199 1.113-5.787-.517l-.865-.888-.3.586c-.42.82-1.266 1.912-2.025 2.613-.984.908-1.844 1.286-2.928 1.286-1.793 0-3.207-1.408-3.998-3.983-.174-.567-.362-1.03-.418-1.03-.057.001-.38.545-.72 1.21-.818 1.6-2.825 3.633-4.241 4.296-1.362.638-3.172.679-4.28.097-.975-.513-2.066-1.731-2.645-2.956-1.895-4.005-1.48-9.443 1.093-14.352 2.295-4.376 5.56-5.346 7.144-2.12.483.982.503 1.131.498 3.62-.007 2.854-.241 4.063-1.164 6.006-1.093 2.3-2.827 3.836-4.336 3.84-.78.001-.81.125-.298 1.254.441.976 1.186 1.79 1.637 1.79 1.063 0 2.898-1.68 3.762-3.444.83-1.693 2.842-7.343 2.919-8.192.04-.443.161-1.853.27-3.133.518-6.104 1.579-11.152 3.63-17.27.946-2.823 1.178-3.346 1.587-3.575.634-.357 1.401-.092 1.732.598.216.45.2.679-.124 1.876-.204.75-.862 3.979-1.464 7.176-.6 3.197-1.338 6.943-1.637 8.325-.755 3.49-.973 6.484-.716 9.852.112 1.477.326 3.195.474 3.817.321 1.346 1.106 3.075 1.395 3.075.335 0 2.175-2.037 3.13-3.467l.887-1.325.1-3.377c.109-3.72.432-5.668 1.399-8.426 1.21-3.457 2.606-5.906 4.227-7.42 1.199-1.12 1.913-1.46 3.094-1.478 1.713-.024 2.79.97 3.6 3.325.304.885.393 1.582.409 3.191.035 3.664-.868 5.89-2.218 5.46-.434-.137-.457-.248-.702-3.4-.195-2.493-.469-3.921-.91-4.746l-.231-.432-.875.952c-1.429 1.554-2.958 4.987-3.756 8.432-.443 1.912-.645 6.482-.349 7.865.253 1.179.677 2.1 1.028 2.235.996.382 4.836-2.684 7.53-6.013.888-1.095 1.01-1.362 1.48-3.222 1.125-4.452 3.561-9.235 5.892-11.566.928-.929 1.817-1.438 2.782-1.594.517-.084.643-.218.99-1.053 1.157-2.792 3.767-3.021 4.978-.437.204.434.325 1.349.394 2.979l.1 2.352 1.511-.514c.831-.282 2.092-.789 2.8-1.126 1.106-.525 1.392-.762 2.006-1.666.394-.58.846-1.162 1.004-1.294.404-.334 1.13-.297 1.546.08.69.625-.263 1.392-1.69 6.766-.841 3.172-1.536 6.566-.968 5.636 1.853-3.036 3.053-5.39 4.973-7.321 2.086-2.097 3.299-2.848 4.598-2.848 1.627 0 2.358.835 2.544 2.91l.115 1.283 1.205-1.694c2.89-4.064 6.103-6.786 8.015-6.79 2.168-.004 2.914 2.234 1.858 5.58-.258.817-1.381 3.87-2.497 6.783-1.866 4.875-3.722 10.442-4.194 12.59-.416 1.887.364 1.545 3.102-1.36 1.609-1.706 2.047-2.29 2.378-3.17 1.527-4.062 4.382-7.966 7.6-10.39 3.75-2.827 7.003-3.391 8.575-1.489 1.33 1.612 1.174 4.017-.477 7.288-1.007 1.995-1.965 3.295-3.71 5.033-1.266 1.262-1.943 1.78-3.03 2.317-2.247 1.111-4.18 1.04-5.661-.206l-.519-.436-.123.822c-.196 1.304 0 2.434.485 2.83.364.295.624.329 1.942.247 1.934-.12 3.492-.611 6.132-1.936 1.157-.581 2.3-1.056 2.54-1.056 1.002 0 .801.862-.497 2.135-2.821 2.768-7.426 4.676-9.994 4.143-1.93-.4-3.537-1.913-3.821-3.598l-.117-.694-1.463 1.496c-2.092 2.14-3.19 2.378-4.958 1.08-1.025-.752-1.25-1.3-1.25-3.048 0-2.943.944-6.3 3.79-13.486 2.46-6.214 2.876-7.363 2.664-7.363-.084 0-.877.766-1.764 1.702-2.747 2.903-5.736 7.744-8.099 13.117-1.282 2.914-1.693 3.442-2.686 3.442-.534 0-.772-.115-1.139-.551-.6-.714-.59-1.22.08-3.751 1.677-6.342 2.447-9.775 2.239-9.984-.118-.118-1.024.577-1.619 1.243-2.232 2.5-4.17 5.367-6.754 9.999-2.1 3.764-2.77 5.193-3.926 8.372-.59 1.625-1.393 3.679-1.783 4.565-.39.886-.686 1.632-.657 1.66.227.213 4.106.62 5.891.617 4.022-.005 6.535-.877 7.162-2.484.117-.299.08-.73-.123-1.427-.288-.99-.723-1.522-2.38-2.913-.634-.532-.668-.658-.308-1.15.197-.27.45-.342 1.132-.321 2.314.068 4.699 2.47 4.994 5.031.131 1.133-.467 2.717-1.413 3.743-.883.959-2.728 1.901-4.564 2.332-1.913.449-6.907.437-9.445-.022-.984-.178-1.991-.358-2.238-.4-.385-.066-.594.125-1.514 1.381-3.272 4.47-8.61 7.742-14.427 8.846-1.988.377-5.307.347-6.706-.061zm5.061-2.89c4.165-.522 8.715-2.666 11.74-5.533 1.004-.953 2.38-2.651 2.243-2.77-.291-.254-6.489-2.126-7.744-2.34-4.066-.694-7.496.014-10.226 2.112-2.62 2.013-3.938 4.837-3.055 6.545.463.894 2.374 1.862 4.04 2.045 1.2.132 1.54.125 3.002-.058zM71.84 76.66c2.078-1.703 4.536-6.523 5.955-11.675l.559-2.028-.559-.843c-.307-.464-.648-1.117-.759-1.45-.11-.335-.285-.608-.389-.608-.299 0-1.39 1.237-2.21 2.506-1.777 2.753-3.234 6.268-3.763 9.082-.338 1.796-.384 4.373-.091 5.125.222.57.453.55 1.257-.11zm-34.977-.894c.7-.828 1.262-2.156 1.587-3.752.29-1.429.35-3.213.127-3.78-.123-.313-.138-.313-.417 0-.472.531-1.548 2.6-1.93 3.712-.494 1.434-.934 3.657-.805 4.064.17.536.88.415 1.438-.244zm81.867-1.444c2.697-1.606 5.934-6.586 5.934-9.13 0-.503-.03-.523-.62-.427-1.569.254-4.462 2.258-6.233 4.316-1.39 1.614-2.814 3.798-2.814 4.315 0 .245.288.663.735 1.067.653.59.807.651 1.387.547.36-.065 1.084-.375 1.61-.688zM28.119 96.04c-.439-.49-.79-.716-1.11-.716-.543 0-1.349-.724-1.349-1.211 0-.397.29-.78.892-1.181.245-.163.527-.59.627-.947.238-.846.967-1.405 1.618-1.242.36.09.574.34.848.988.333.789.43.876 1.062.96.81.11 1.22.395 1.22.851 0 .367-.757 1.024-1.35 1.173-.303.076-.42.268-.493.809-.192 1.432-.96 1.634-1.964.516zm69.267-.449c-.48-.48-.534-.993-.16-1.497.985-1.326 2.863.016 1.916 1.369-.331.472-1.338.546-1.756.128zm11.475-2.73c-.155-.171-.34-.54-.409-.819-.069-.279-.316-.593-.547-.699-.738-.336-.778-1.434-.06-1.662.226-.072.417-.384.544-.89.46-1.828 2.01-2.076 2.288-.366.106.65.156.693 1.083.93 1.112.285 1.445.507 1.445.965 0 .49-.805 1.02-1.89 1.246-.574.12-.974.298-.974.434 0 .33-.698 1.175-.97 1.175-.125 0-.355-.14-.51-.313zm-60.657-1.82c-1.203-1.204-.126-3.292 1.538-2.98.715.135 1.52 1.006 1.52 1.646 0 .584-.455 1.442-.886 1.673-.682.365-1.613.22-2.172-.34zM15.13 89.125c-1.018-.52-1.876-1.924-2.501-4.096-.736-2.556-.844-3.613-.832-8.145.01-3.824.062-4.628.41-6.266 1.075-5.08 2.96-8.773 4.478-8.773.926 0 1.055.565.489 2.135-.56 1.553-1.401 4.846-1.832 7.175-.485 2.625-.44 8.597.083 11.041.215 1.002.561 2.21.77 2.686l.38.864.351-.78c.9-2.004 1.501-5.466 2.193-12.623.387-4.006.47-4.494.823-4.87.81-.862 2.236-.643 2.637.406.105.275.233 1.95.285 3.723.05 1.773.22 4.028.375 5.013.546 3.466 1.716 7.582 2.201 7.744.28.094.863-1.909 1.223-4.199.583-3.71.38-11.085-.48-17.502-.278-2.07-.295-2.09-1.738-1.958-1.68.154-3.143-.159-4.281-.914-2.327-1.545-2.745-4.575-.847-6.14.991-.817 2.236-1.058 3.526-.683 1.57.457 2.742 1.516 3.987 3.606.174.291.229.288.906-.058 1.293-.659 3.532-2.454 5.094-4.082 1.653-1.724 3.308-3.756 6.258-7.684 2.14-2.85 6.117-6.97 7.856-8.137 2.701-1.814 5.411-2.693 8.292-2.69 4.697.007 7.929 2.471 8.566 6.533.23 1.468.112 2.792-.387 4.33-.589 1.815-2.12 3.477-2.922 3.17-.388-.15-.35-.784.114-1.898.52-1.249.57-4.236.094-5.607-1.089-3.144-5-4.315-9.184-2.75-1.29.483-3.819 2.198-5.301 3.596-1.416 1.335-3.242 3.456-5.12 5.949-4.888 6.484-8.167 9.79-11.554 11.652-.658.362-1.196.676-1.196.7 0 .022.2.632.446 1.354 1.145 3.366 1.61 7.829 1.473 14.132-.103 4.703-.342 6.67-1.108 9.095-.827 2.616-2.033 3.878-3.707 3.878-1.594 0-2.828-1.312-3.825-4.066l-.392-1.081-.555 1.778c-.62 1.991-1.5 3.533-2.386 4.188-.77.57-2.302.692-3.162.254zm8.878-31.368c.172-.11.1-.321-.295-.866-1.125-1.553-3.352-1.598-2.524-.05.239.446.81.748 1.697.9.393.066.756.13.805.14.05.011.192-.045.317-.124zM9.794 60.913c-.074-.119-.18-.74-.235-1.382l-.1-1.167-.765-.15c-1.009-.199-1.43-.782-1.085-1.501.283-.59.92-.949 1.695-.952.497-.003.575-.074.676-.611.13-.694.73-1.54 1.09-1.54.507 0 .805.552.805 1.49v.929l.906.416c.499.228.953.536 1.01.684.168.438-.396.822-1.342.913l-.884.085-.304 1.098c-.459 1.66-1.058 2.35-1.467 1.688zm110.105-5.606c-.235-.235-.427-.552-.427-.704 0-.393.65-.993 1.074-.993.4 0 1.074.593 1.074.945 0 .378-.5.973-.91 1.08-.259.068-.521-.038-.81-.328zm-18.392-3.636c-.393-.434-.377-1.334.031-1.703.435-.394 1.335-.377 1.704.03.393.435.377 1.335-.031 1.705-.435.393-1.335.376-1.704-.032zm12.355-3.73c-.173-.174-.146-1.49.045-2.156.152-.53.12-.597-.434-.924-.875-.516-1.084-.998-.63-1.452.4-.399.82-.451 1.512-.188.38.145.53.1.899-.269.497-.497 1.365-.59 1.703-.182.119.142.194.565.167.94-.03.424.073.865.274 1.171.44.668.262 1.03-.505 1.03-.545 0-.723.131-1.464 1.075-.77.98-1.25 1.272-1.567.955zm-87.368-1.103c-.462-.51-.378-1.373.175-1.808.626-.493 1.237-.469 1.774.068.537.537.556.976.069 1.595-.458.583-1.55.66-2.018.145zm43.67-1.162c-.177-.13-.42-.622-.54-1.095-.195-.765-.294-.886-.903-1.095-.884-.304-1.213-.646-1.213-1.262 0-.59.545-1.089 1.356-1.242.486-.092.621-.242.927-1.035.32-.83.42-.934.944-.984.523-.05.615.012.85.576.146.348.265.875.265 1.17 0 .415.12.601.524.81.967.5.898 1.267-.154 1.702-.419.174-.534.355-.63.992-.108.722-.667 1.699-.972 1.699-.073 0-.277-.106-.454-.236z" opacity="1" data-original="#ffffff" class=""></path></g></svg>